HIERARCHY
ROOT joint_Root
{
	OFFSET 0.0 0.0 0.0
	CHANNELS 6 Xposition Yposition Zposition Zrotation Xrotation Yrotation 
	JOINT Hips
	{
		OFFSET 4.5925 91.4895 -427.239
		CHANNELS 6 Xposition Yposition Zposition Zrotation Xrotation Yrotation 
		JOINT Spine
		{
			OFFSET 15.7357 0.0 0.0
			CHANNELS 6 Xposition Yposition Zposition Zrotation Xrotation Yrotation 
			JOINT Chest
			{
				OFFSET 8.98455 -0.406207 0.0
				CHANNELS 6 Xposition Yposition Zposition Zrotation Xrotation Yrotation 
				JOINT Neck
				{
					OFFSET 16.3773 0.0 0.0
					CHANNELS 6 Xposition Yposition Zposition Zrotation Xrotation Yrotation 
					JOINT Head
					{
						OFFSET 6.45672 0.0 0.0
						CHANNELS 6 Xposition Yposition Zposition Zrotation Xrotation Yrotation 
						End Site
						{
							OFFSET 0.0 0.0 0.0
						}
					}
				}
				JOINT Shoulder_L
				{
					OFFSET 12.9942 -0.242716 4.98039
					CHANNELS 6 Xposition Yposition Zposition Zrotation Xrotation Yrotation 
					JOINT UpperArm_L
					{
						OFFSET 5.34809 0.0 0.0
						CHANNELS 6 Xposition Yposition Zposition Zrotation Xrotation Yrotation 
						JOINT LowerArm_L
						{
							OFFSET 24.3286 1.87007e-05 0.0
							CHANNELS 6 Xposition Yposition Zposition Zrotation Xrotation Yrotation 
							JOINT Hand_L
							{
								OFFSET 22.2916 0.0 0.0
								CHANNELS 6 Xposition Yposition Zposition Zrotation Xrotation Yrotation 
								End Site
								{
									OFFSET 0.0 0.0 0.0
								}
							}
						}
					}
				}
				JOINT Shoulder_R
				{
					OFFSET 12.9945 -0.242716 -4.98039
					CHANNELS 6 Xposition Yposition Zposition Zrotation Xrotation Yrotation 
					JOINT UpperArm_R
					{
						OFFSET -5.34813 0.0 0.0
						CHANNELS 6 Xposition Yposition Zposition Zrotation Xrotation Yrotation 
						JOINT LowerArm_R
						{
							OFFSET -24.3289 0.000322201 0.0
							CHANNELS 6 Xposition Yposition Zposition Zrotation Xrotation Yrotation 
							JOINT Hand_R
							{
								OFFSET -22.2915 -0.000108084 0.0
								CHANNELS 6 Xposition Yposition Zposition Zrotation Xrotation Yrotation 
								End Site
								{
									OFFSET 0.0 0.0 0.0
								}
							}
						}
					}
				}
			}
		}
		JOINT UpperLeg_L
		{
			OFFSET -2.19248 -6.46944 0.0
			CHANNELS 6 Xposition Yposition Zposition Zrotation Xrotation Yrotation 
			JOINT LowerLeg_L
			{
				OFFSET 39.0811 0.0 -1.23785e-05
				CHANNELS 6 Xposition Yposition Zposition Zrotation Xrotation Yrotation 
				JOINT Foot_L
				{
					OFFSET 40.9854 0.0 -1.26872e-05
					CHANNELS 6 Xposition Yposition Zposition Zrotation Xrotation Yrotation 
					JOINT Toes_L
					{
						OFFSET 11.7543 0.0 0.0
						CHANNELS 6 Xposition Yposition Zposition Zrotation Xrotation Yrotation 
						End Site
						{
							OFFSET 0.0 0.0 0.0
						}
					}
				}
			}
		}
		JOINT UpperLeg_R
		{
			OFFSET -2.19251 6.46944 0.0
			CHANNELS 6 Xposition Yposition Zposition Zrotation Xrotation Yrotation 
			JOINT LowerLeg_R
			{
				OFFSET -39.0811 -0.00228153 -0.0401928
				CHANNELS 6 Xposition Yposition Zposition Zrotation Xrotation Yrotation 
				JOINT Foot_R
				{
					OFFSET -40.9854 0.0 0.0
					CHANNELS 6 Xposition Yposition Zposition Zrotation Xrotation Yrotation 
					JOINT Toes_R
					{
						OFFSET -11.7543 0.0 0.0
						CHANNELS 6 Xposition Yposition Zposition Zrotation Xrotation Yrotation 
						End Site
						{
							OFFSET 0.0 0.0 0.0
						}
					}
				}
			}
		}
	}
}
MOTION
Frames:	6
Frame Time:	0.0333333
0.000000 0.000000 0.000000 0.000000 0.000000 -0.000000 9.167370 90.782700 43.254400 -89.957300 9.423600 -175.071000 15.735700 0.000005 -0.000001 102.532000 83.701800 -102.083000 8.984550 -0.406207 -0.000000 4.523960 2.715690 0.788154 16.377300 -0.000001 -0.000001 -2.388450 -1.542220 3.060620 6.456720 -0.000001 -0.000000 -7.592960 -2.971730 8.394850 12.994200 -0.242716 4.980390 -90.811300 2.433440 -71.556500 5.348090 -0.000007 -0.000001 -74.505700 21.490900 2.212370 24.328600 0.000019 0.000005 1.755970 31.498900 -3.357810 22.291600 -0.000001 0.000005 8.884720 5.024240 6.798540 12.994500 -0.242716 -4.980390 88.932900 9.613620 -83.635900 -5.348130 -0.000001 -0.000004 -52.168400 27.311100 -31.007800 -24.328900 0.000322 -0.000009 -0.258478 -0.452111 -29.548000 -22.291500 -0.000108 -0.000004 17.416300 5.407020 -3.162600 -2.192480 -6.469440 -0.000000 -177.565000 -13.942800 -19.445600 39.081100 -0.000007 -0.000012 0.048703 -0.059464 39.317300 40.985400 -0.000006 -0.000013 2.706760 -4.822450 -60.586700 11.754300 -0.000000 0.000003 -0.005120 -0.062628 -19.125100 -2.192510 6.469440 -0.000001 175.257000 14.761600 -176.775000 -39.081100 -0.002282 -0.040193 0.009765 -0.012178 27.942400 -40.985400 0.000008 0.000006 11.898900 19.620900 -74.378200 -11.754300 -0.000006 -0.000006 -1.175430 -1.352520 -20.950800
0.000000 0.000000 0.000000 0.000000 0.000000 -0.000000 8.779070 90.508600 40.486300 -89.146400 11.043600 -175.978000 15.735700 0.000005 -0.000001 105.606000 83.805600 -105.123000 8.984550 -0.406207 -0.000000 4.157970 3.312570 0.846556 16.377300 -0.000001 -0.000001 -2.698680 -1.569090 2.862050 6.456720 -0.000001 -0.000000 -8.056100 -3.303170 7.927380 12.994200 -0.242716 4.980390 -90.684200 2.031160 -71.380800 5.348090 -0.000007 -0.000001 -74.388600 19.209600 5.814120 24.328600 0.000019 0.000005 1.179730 31.210500 -2.275690 22.291600 -0.000001 0.000005 9.165440 4.999550 7.329050 12.994500 -0.242716 -4.980390 89.017200 9.129400 -83.829200 -5.348130 -0.000001 -0.000004 -50.212800 27.084200 -33.971300 -24.328900 0.000322 -0.000009 -0.625138 -0.873689 -35.531300 -22.291500 -0.000108 -0.000004 18.824100 5.423980 -3.730590 -2.192480 -6.469440 -0.000000 -175.983000 -11.555100 -20.217000 39.081100 -0.000007 -0.000012 -0.093183 0.169826 28.753700 40.985400 -0.000006 -0.000013 -1.658070 -2.349520 -58.229100 11.754300 -0.000000 0.000003 -0.004361 -0.055147 -18.820200 -2.192510 6.469440 -0.000001 174.631000 15.339100 -175.691000 -39.081100 -0.002282 -0.040193 -0.002441 0.010987 27.615500 -40.985400 0.000008 0.000006 12.064500 22.027800 -74.331000 -11.754300 -0.000006 -0.000006 -1.661610 -1.822380 -22.674900
0.000000 0.000000 0.000000 0.000000 0.000000 -0.000000 8.253800 90.131700 37.470700 -89.034600 12.057800 -176.475000 15.735700 0.000005 -0.000001 107.317000 83.841400 -107.076000 8.984550 -0.406207 -0.000000 3.991860 3.653080 0.354759 16.377300 -0.000001 -0.000001 -2.852680 -1.690800 2.876700 6.456720 -0.000001 -0.000000 -8.667320 -3.711910 7.734040 12.994200 -0.242716 4.980390 -90.603300 1.773290 -71.208400 5.348090 -0.000007 -0.000001 -73.942800 18.387700 8.521940 24.328600 0.000019 0.000005 1.040590 31.258400 -2.004690 22.291600 -0.000001 0.000005 9.243720 5.000580 7.307210 12.994500 -0.242716 -4.980390 89.008200 9.227770 -83.838400 -5.348130 -0.000001 -0.000004 -48.450000 26.340100 -35.731300 -24.328900 0.000322 -0.000009 -0.495718 -0.560581 -41.432400 -22.291500 -0.000108 -0.000004 19.702100 5.435450 -4.125160 -2.192480 -6.469440 -0.000000 -177.385000 -13.148000 -23.026300 39.081100 -0.000007 -0.000012 0.041609 -0.093370 24.019600 40.985400 -0.000006 -0.000013 -0.150632 0.781040 -55.010100 11.754300 -0.000000 0.000003 -0.004184 -0.053349 -18.747000 -2.192510 6.469440 -0.000001 173.085000 15.609300 -174.468000 -39.081100 -0.002282 -0.040193 -0.014244 0.032971 28.025600 -40.985400 0.000008 0.000006 12.058700 23.706000 -74.816800 -11.754300 -0.000006 -0.000006 -0.794379 -0.915971 -23.674900
0.000000 0.000000 0.000000 0.000000 0.000000 -0.000000 7.564340 89.620800 34.104800 -88.914100 12.542600 -176.806000 15.735700 0.000005 -0.000001 108.362000 83.873700 -108.351000 8.984550 -0.406207 -0.000000 3.869690 3.854160 -0.108200 16.377300 -0.000001 -0.000001 -3.003880 -1.971430 2.909430 6.456720 -0.000001 -0.000000 -8.968870 -4.193830 7.777490 12.994200 -0.242716 4.980390 -90.583500 1.711670 -71.174700 5.348090 -0.000007 -0.000001 -73.388300 18.219100 10.302200 24.328600 0.000019 0.000005 1.096810 31.175400 -2.117970 22.291600 -0.000001 0.000005 9.391700 5.006780 7.174930 12.994500 -0.242716 -4.980390 88.977200 9.415340 -83.771900 -5.348130 -0.000001 -0.000004 -47.570700 25.297600 -36.227700 -24.328900 0.000322 -0.000009 -0.180369 -0.169929 -46.560700 -22.291500 -0.000108 -0.000004 20.623600 5.445010 -4.461220 -2.192480 -6.469440 -0.000000 -179.890000 -16.801000 -25.457100 39.081100 -0.000007 -0.000012 0.089224 -0.204832 23.537800 40.985400 -0.000006 -0.000013 2.162750 3.108720 -54.868900 11.754300 -0.000000 0.000003 -0.004520 -0.056755 -18.885700 -2.192510 6.469440 -0.000001 171.838000 14.454200 -173.454000 -39.081100 -0.002282 -0.040193 -0.018145 0.038212 29.305500 -40.985400 0.000008 0.000006 11.509300 23.835800 -74.858100 -11.754300 -0.000006 -0.000006 -0.030589 -0.220152 -25.593600
0.000000 0.000000 0.000000 0.000000 0.000000 -0.000000 6.646860 89.036300 30.362500 -88.952700 12.575800 -177.283000 15.735700 0.000005 -0.000001 108.924000 84.033400 -109.122000 8.984550 -0.406207 -0.000000 3.535720 3.872590 -0.514946 16.377300 -0.000001 -0.000001 -3.008630 -2.238820 2.856940 6.456720 -0.000001 -0.000000 -9.178030 -4.604360 7.746960 12.994200 -0.242716 4.980390 -90.677300 1.973520 -71.053500 5.348090 -0.000007 -0.000001 -72.774800 18.326100 10.888400 24.328600 0.000019 0.000005 1.058090 31.172500 -2.043470 22.291600 -0.000001 0.000005 9.587860 5.007630 7.156600 12.994500 -0.242716 -4.980390 88.953200 9.427960 -83.635200 -5.348130 -0.000001 -0.000004 -47.529200 24.314500 -35.645300 -24.328900 0.000322 -0.000009 -0.375094 -0.309360 -50.376900 -22.291500 -0.000108 -0.000004 21.353200 5.457310 -4.902230 -2.192480 -6.469440 -0.000000 178.945000 -16.779100 -27.457500 39.081100 -0.000007 -0.000012 0.091785 -0.177306 27.368900 40.985400 -0.000006 -0.000013 3.556680 1.521290 -51.304100 11.754300 -0.000000 0.000003 -0.004179 -0.053296 -18.744800 -2.192510 6.469440 -0.000001 170.598000 12.631600 -172.898000 -39.081100 -0.002282 -0.040193 -0.011501 0.024376 31.264400 -40.985400 0.000008 0.000006 10.640300 23.330400 -74.151900 -11.754300 -0.000006 -0.000006 -0.052794 -0.307588 -29.251400
0.000000 0.000000 0.000000 0.000000 0.000000 -0.000000 5.744380 88.406600 26.056100 -89.036900 13.103300 -177.315000 15.735700 0.000005 -0.000001 110.940000 84.159200 -111.317000 8.984550 -0.406207 -0.000000 3.165340 4.185530 -0.870538 16.377300 -0.000001 -0.000001 -2.746180 -2.418720 2.886830 6.456720 -0.000001 -0.000000 -8.923710 -4.810020 7.549160 12.994200 -0.242716 4.980390 -90.788600 2.249940 -70.680100 5.348090 -0.000007 -0.000001 -72.273500 18.168600 10.588200 24.328600 0.000019 0.000005 0.961728 31.648700 -1.832320 22.291600 -0.000001 0.000005 10.029500 4.997590 7.370510 12.994500 -0.242716 -4.980390 88.925000 9.414310 -83.455900 -5.348130 -0.000001 -0.000004 -47.745300 24.186900 -34.101900 -24.328900 0.000322 -0.000009 -1.195860 -0.911331 -52.659200 -22.291500 -0.000108 -0.000004 21.911300 5.464880 -5.179320 -2.192480 -6.469440 -0.000000 178.778000 -15.969500 -28.591900 39.081100 -0.000007 -0.000012 0.020923 -0.030295 34.629600 40.985400 -0.000006 -0.000013 3.827010 1.670590 -54.267200 11.754300 -0.000000 0.000003 -0.001123 -0.017146 -17.274000 -2.192510 6.469440 -0.000001 169.254000 10.316400 -172.447000 -39.081100 -0.002282 -0.040193 0.010009 -0.009845 34.299600 -40.985400 0.000008 0.000006 9.967600 23.012700 -72.161400 -11.754300 -0.000006 -0.000006 -0.097153 -0.437437 -34.816400
